<mxfile host="app.diagrams.net" agent="Mozilla/5.0 (Windows NT 10.0; Win64; x64) AppleWebKit/537.36 (KHTML, like Gecko) Chrome/135.0.0.0 Safari/537.36" version="26.2.14">
  <diagram name="Page-1" id="imbiT7rrJTjJpwrWgLFA">
    <mxGraphModel dx="1010" dy="1800" grid="1" gridSize="10" guides="1" tooltips="1" connect="1" arrows="1" fold="1" page="1" pageScale="1" pageWidth="850" pageHeight="1100" math="0" shadow="0">
      <root>
        <mxCell id="0" />
        <mxCell id="1" parent="0" />
        <mxCell id="ChInd9KuV37NnPJaGIP1-1" value="" style="rounded=0;whiteSpace=wrap;html=1;dashed=1;fontSize=12;fontStyle=1" parent="1" vertex="1">
          <mxGeometry x="50" y="20" width="1140" height="330" as="geometry" />
        </mxCell>
        <mxCell id="ChInd9KuV37NnPJaGIP1-10" style="edgeStyle=orthogonalEdgeStyle;rounded=0;orthogonalLoop=1;jettySize=auto;html=1;fontSize=12;fontStyle=1" parent="1" source="ChInd9KuV37NnPJaGIP1-2" target="ChInd9KuV37NnPJaGIP1-9" edge="1">
          <mxGeometry relative="1" as="geometry" />
        </mxCell>
        <mxCell id="ChInd9KuV37NnPJaGIP1-2" value="&lt;span&gt;&lt;font&gt;API For Music Data(Last.fm)&lt;/font&gt;&lt;/span&gt;" style="sketch=0;outlineConnect=0;fontColor=#232F3E;gradientColor=none;fillColor=#232F3D;strokeColor=none;dashed=0;verticalLabelPosition=bottom;verticalAlign=top;align=center;html=1;fontSize=12;fontStyle=1;aspect=fixed;pointerEvents=1;shape=mxgraph.aws4.globe;" parent="1" vertex="1">
          <mxGeometry x="120" y="55" width="65" height="65" as="geometry" />
        </mxCell>
        <mxCell id="ChInd9KuV37NnPJaGIP1-17" style="edgeStyle=orthogonalEdgeStyle;rounded=0;orthogonalLoop=1;jettySize=auto;html=1;fontSize=12;fontStyle=1" parent="1" source="ChInd9KuV37NnPJaGIP1-9" target="ChInd9KuV37NnPJaGIP1-13" edge="1">
          <mxGeometry relative="1" as="geometry" />
        </mxCell>
        <mxCell id="ChInd9KuV37NnPJaGIP1-9" value="" style="sketch=0;outlineConnect=0;fontColor=#232F3E;gradientColor=none;fillColor=#232F3D;strokeColor=none;dashed=0;verticalLabelPosition=bottom;verticalAlign=top;align=center;html=1;fontSize=12;fontStyle=1;aspect=fixed;pointerEvents=1;shape=mxgraph.aws4.documents;" parent="1" vertex="1">
          <mxGeometry x="370" y="48.5" width="64" height="78" as="geometry" />
        </mxCell>
        <mxCell id="ChInd9KuV37NnPJaGIP1-11" value="&lt;font&gt;Retrieved data from the API&lt;/font&gt;" style="edgeLabel;html=1;align=center;verticalAlign=middle;resizable=0;points=[];fontSize=12;fontStyle=1" parent="1" vertex="1" connectable="0">
          <mxGeometry x="290" y="70" as="geometry" />
        </mxCell>
        <mxCell id="ChInd9KuV37NnPJaGIP1-12" value="JSON Data" style="text;html=1;align=center;verticalAlign=middle;resizable=0;points=[];autosize=1;strokeColor=none;fillColor=none;fontSize=12;fontStyle=1" parent="1" vertex="1">
          <mxGeometry x="362" y="120" width="80" height="30" as="geometry" />
        </mxCell>
        <mxCell id="ChInd9KuV37NnPJaGIP1-21" style="edgeStyle=orthogonalEdgeStyle;rounded=0;orthogonalLoop=1;jettySize=auto;html=1;entryX=0;entryY=0.5;entryDx=0;entryDy=0;fontSize=12;fontStyle=1" parent="1" source="ChInd9KuV37NnPJaGIP1-13" target="ChInd9KuV37NnPJaGIP1-20" edge="1">
          <mxGeometry relative="1" as="geometry" />
        </mxCell>
        <mxCell id="ChInd9KuV37NnPJaGIP1-23" value="&lt;font&gt;&lt;span style=&quot;&quot;&gt;&lt;font&gt;Computed Embedding&lt;/font&gt;&lt;/span&gt;&lt;span style=&quot;&quot;&gt;s&lt;/span&gt;&lt;/font&gt;" style="edgeLabel;html=1;align=center;verticalAlign=middle;resizable=0;points=[];fontSize=12;fontStyle=1" parent="ChInd9KuV37NnPJaGIP1-21" vertex="1" connectable="0">
          <mxGeometry x="-0.4833" y="11" relative="1" as="geometry">
            <mxPoint x="31" as="offset" />
          </mxGeometry>
        </mxCell>
        <mxCell id="ChInd9KuV37NnPJaGIP1-13" value="&lt;span&gt;&lt;font&gt;Embedding Model(Word2Vec)&lt;/font&gt;&lt;/span&gt;" style="sketch=0;outlineConnect=0;fontColor=#232F3E;gradientColor=none;fillColor=#01A88D;strokeColor=none;dashed=0;verticalLabelPosition=bottom;verticalAlign=top;align=center;html=1;fontSize=12;fontStyle=1;aspect=fixed;pointerEvents=1;shape=mxgraph.aws4.sagemaker_model;" parent="1" vertex="1">
          <mxGeometry x="670" y="48.5" width="78" height="78" as="geometry" />
        </mxCell>
        <mxCell id="ChInd9KuV37NnPJaGIP1-18" value="&lt;span&gt;Training Embedding Model With Artist Tags&lt;/span&gt;" style="edgeLabel;html=1;align=center;verticalAlign=middle;resizable=0;points=[];fontSize=12;fontStyle=1" parent="1" vertex="1" connectable="0">
          <mxGeometry x="500.00230769230757" y="70" as="geometry">
            <mxPoint x="49" y="2" as="offset" />
          </mxGeometry>
        </mxCell>
        <mxCell id="ChInd9KuV37NnPJaGIP1-20" value="" style="editableCssRules=.*;html=1;shape=image;verticalLabelPosition=bottom;labelBackgroundColor=#ffffff;verticalAlign=top;aspect=fixed;imageAspect=0;image=data:image/svg+xml,PHN2ZyB4bWxucz0iaHR0cDovL3d3dy53My5vcmcvMjAwMC9zdmciIHhtbG5zOnY9Imh0dHBzOi8vdmVjdGEuaW8vbmFubyIgd2lkdGg9IjMyMy45MDU2MTAzOTg2NzUxNSIgaGVpZ2h0PSIzNzYuNDIyMjk0OTYzNjg0MDciIHZpZXdCb3g9Ii0wLjA5NzAwMDAwMjg2MTAyMjk1IDAuMjg3OTk5OTg3NjAyMjMzOSA4NS42OTk5OTY5NDgyNDIxOSA5OS41OTUwMDEyMjA3MDMxMiI+JiN4YTs8c3R5bGUgdHlwZT0idGV4dC9jc3MiPiYjeGE7CS5zdDB7ZmlsbDojYWVjYmZhO30mI3hhOwkuc3Qxe2ZpbGw6IzY2OWRmNjt9JiN4YTsJLnN0MntmaWxsOiM0Mjg1ZjQ7fSYjeGE7PC9zdHlsZT4mI3hhOwk8cGF0aCBjbGFzcz0ic3QwIiBkPSJNLS4wOTcgNzUuODE1VjU1Ljg3NGw0Mi44NS0yMC4xODN2MTkuMDd6bTAtMzUuNDAzVjIwLjQ3MUw0Mi43NTMuMjg4djE5LjA3eiIvPiYjeGE7CTxwYXRoIGNsYXNzPSJzdDEiIGQ9Ik04NS42MDMgNzUuODE1VjU1Ljg3NGwtNDIuODUtMjAuMTgzdjE5LjA3em0wLTM1LjQwM1YyMC40NzFMNDIuNzUzLjI4OHYxOS4wN3oiLz4mI3hhOwk8cGF0aCBjbGFzcz0ic3QyIiBkPSJNNDIuNzUzIDgwLjMxNGwxNi4yMTctNy41MjUgMjEuMDg0IDkuNzE3LTM3LjMwMSAxNy4zNzd6Ii8+JiN4YTs8L3N2Zz4=;fontSize=12;fontStyle=1" parent="1" vertex="1">
          <mxGeometry x="906.25" y="50" width="63.75" height="75" as="geometry" />
        </mxCell>
        <mxCell id="ChInd9KuV37NnPJaGIP1-22" value="&lt;div style=&quot;text-align: center;&quot;&gt;&lt;span style=&quot;background-color: transparent; color: light-dark(rgb(0, 0, 0), rgb(255, 255, 255)); text-wrap-mode: nowrap;&quot;&gt;&lt;span&gt;GCP FireStore&lt;/span&gt;&lt;/span&gt;&lt;/div&gt;" style="text;whiteSpace=wrap;html=1;fontSize=12;fontStyle=1" parent="1" vertex="1">
          <mxGeometry x="870" y="125" width="110" height="25" as="geometry" />
        </mxCell>
        <mxCell id="ChInd9KuV37NnPJaGIP1-33" style="edgeStyle=orthogonalEdgeStyle;rounded=0;orthogonalLoop=1;jettySize=auto;html=1;entryX=1;entryY=0.5;entryDx=0;entryDy=0;fontSize=12;fontStyle=1" parent="1" source="ChInd9KuV37NnPJaGIP1-31" target="ChInd9KuV37NnPJaGIP1-20" edge="1">
          <mxGeometry relative="1" as="geometry" />
        </mxCell>
        <mxCell id="ChInd9KuV37NnPJaGIP1-31" value="" style="sketch=0;outlineConnect=0;fontColor=#232F3E;gradientColor=none;fillColor=#232F3D;strokeColor=none;dashed=0;verticalLabelPosition=bottom;verticalAlign=top;align=center;html=1;fontSize=12;fontStyle=1;aspect=fixed;pointerEvents=1;shape=mxgraph.aws4.json_script;" parent="1" vertex="1">
          <mxGeometry x="680.5" y="200" width="57" height="78" as="geometry" />
        </mxCell>
        <mxCell id="ChInd9KuV37NnPJaGIP1-32" value="&lt;div style=&quot;text-align: center;&quot;&gt;&lt;span style=&quot;background-color: transparent; text-wrap-mode: nowrap;&quot;&gt;&lt;font color=&quot;#232f3e&quot;&gt;&lt;span&gt;Cosine Similarity Script&lt;/span&gt;&lt;/font&gt;&lt;/span&gt;&lt;/div&gt;" style="text;whiteSpace=wrap;html=1;fontSize=12;fontStyle=1" parent="1" vertex="1">
          <mxGeometry x="610" y="290" width="230" height="40" as="geometry" />
        </mxCell>
        <mxCell id="ChInd9KuV37NnPJaGIP1-34" value="&lt;span style=&quot;text-wrap-mode: nowrap; background-color: rgb(255, 255, 255);&quot;&gt;&lt;span&gt;Top 10 similar artists&amp;nbsp;&lt;/span&gt;&lt;/span&gt;" style="text;whiteSpace=wrap;html=1;fontSize=12;fontStyle=1" parent="1" vertex="1">
          <mxGeometry x="780" y="210" width="170" height="40" as="geometry" />
        </mxCell>
        <mxCell id="ChInd9KuV37NnPJaGIP1-35" value="" style="rounded=0;whiteSpace=wrap;html=1;dashed=1;fontSize=12;fontStyle=1" parent="1" vertex="1">
          <mxGeometry x="45" y="370" width="1145" height="620" as="geometry" />
        </mxCell>
        <mxCell id="ChInd9KuV37NnPJaGIP1-38" style="edgeStyle=orthogonalEdgeStyle;rounded=0;orthogonalLoop=1;jettySize=auto;html=1;fontSize=12;fontStyle=1" parent="1" source="ChInd9KuV37NnPJaGIP1-36" target="ChInd9KuV37NnPJaGIP1-37" edge="1">
          <mxGeometry relative="1" as="geometry" />
        </mxCell>
        <mxCell id="ChInd9KuV37NnPJaGIP1-36" value="" style="sketch=0;outlineConnect=0;fontColor=#232F3E;gradientColor=none;fillColor=#232F3D;strokeColor=none;dashed=0;verticalLabelPosition=bottom;verticalAlign=top;align=center;html=1;fontSize=12;fontStyle=1;aspect=fixed;pointerEvents=1;shape=mxgraph.aws4.user;" parent="1" vertex="1">
          <mxGeometry x="90" y="430" width="90" height="90" as="geometry" />
        </mxCell>
        <mxCell id="ChInd9KuV37NnPJaGIP1-44" style="edgeStyle=orthogonalEdgeStyle;rounded=0;orthogonalLoop=1;jettySize=auto;html=1;fontSize=12;fontStyle=1" parent="1" source="ChInd9KuV37NnPJaGIP1-37" target="ChInd9KuV37NnPJaGIP1-43" edge="1">
          <mxGeometry relative="1" as="geometry" />
        </mxCell>
        <mxCell id="ChInd9KuV37NnPJaGIP1-79" style="edgeStyle=orthogonalEdgeStyle;rounded=0;orthogonalLoop=1;jettySize=auto;html=1;entryX=0.75;entryY=1;entryDx=0;entryDy=0;fontSize=12;fontStyle=1" parent="1" source="ChInd9KuV37NnPJaGIP1-37" target="ChInd9KuV37NnPJaGIP1-41" edge="1">
          <mxGeometry relative="1" as="geometry">
            <Array as="points">
              <mxPoint x="370" y="590" />
              <mxPoint x="165" y="590" />
            </Array>
          </mxGeometry>
        </mxCell>
        <mxCell id="ChInd9KuV37NnPJaGIP1-37" value="" style="sketch=0;pointerEvents=1;shadow=0;dashed=0;html=1;strokeColor=none;fillColor=#505050;labelPosition=center;verticalLabelPosition=bottom;verticalAlign=top;outlineConnect=0;align=center;shape=mxgraph.office.concepts.website;fontSize=12;fontStyle=1" parent="1" vertex="1">
          <mxGeometry x="363" y="431" width="97" height="89" as="geometry" />
        </mxCell>
        <mxCell id="ChInd9KuV37NnPJaGIP1-39" value="&lt;span style=&quot;color: rgb(0, 0, 0); font-family: Helvetica; font-style: normal; font-variant-ligatures: normal; font-variant-caps: normal; letter-spacing: normal; orphans: 2; text-align: center; text-indent: 0px; text-transform: none; widows: 2; word-spacing: 0px; -webkit-text-stroke-width: 0px; white-space: nowrap; background-color: rgb(255, 255, 255); text-decoration-thickness: initial; text-decoration-style: initial; text-decoration-color: initial; float: none; display: inline !important;&quot;&gt;Enters Artist Name&lt;/span&gt;" style="text;whiteSpace=wrap;html=1;fontSize=12;fontStyle=1" parent="1" vertex="1">
          <mxGeometry x="180" y="440" width="160" height="40" as="geometry" />
        </mxCell>
        <mxCell id="ChInd9KuV37NnPJaGIP1-41" value="&lt;span style=&quot;color: rgb(0, 0, 0); font-family: Helvetica; font-style: normal; font-variant-ligatures: normal; font-variant-caps: normal; letter-spacing: normal; orphans: 2; text-align: center; text-indent: 0px; text-transform: none; widows: 2; word-spacing: 0px; -webkit-text-stroke-width: 0px; white-space: nowrap; background-color: rgb(251, 251, 251); text-decoration-thickness: initial; text-decoration-style: initial; text-decoration-color: initial; float: none; display: inline !important;&quot;&gt;User&lt;/span&gt;" style="text;whiteSpace=wrap;html=1;fontSize=12;fontStyle=1" parent="1" vertex="1">
          <mxGeometry x="120" y="520" width="60" height="40" as="geometry" />
        </mxCell>
        <mxCell id="ChInd9KuV37NnPJaGIP1-42" value="&lt;span style=&quot;text-wrap-mode: nowrap; background-color: rgb(251, 251, 251);&quot;&gt;&lt;span&gt;Frontend&lt;/span&gt;&lt;/span&gt;" style="text;whiteSpace=wrap;html=1;fontSize=12;fontStyle=1" parent="1" vertex="1">
          <mxGeometry x="370" y="530" width="60" height="40" as="geometry" />
        </mxCell>
        <mxCell id="ChInd9KuV37NnPJaGIP1-71" style="edgeStyle=orthogonalEdgeStyle;rounded=0;orthogonalLoop=1;jettySize=auto;html=1;entryX=0.5;entryY=1;entryDx=0;entryDy=0;fontSize=12;fontStyle=1" parent="1" edge="1">
          <mxGeometry relative="1" as="geometry">
            <mxPoint x="725" y="507.5" as="sourcePoint" />
            <mxPoint x="410" y="552.5" as="targetPoint" />
            <Array as="points">
              <mxPoint x="725" y="572.5" />
              <mxPoint x="410" y="572.5" />
            </Array>
          </mxGeometry>
        </mxCell>
        <mxCell id="ChInd9KuV37NnPJaGIP1-43" value="" style="outlineConnect=0;dashed=0;verticalLabelPosition=bottom;verticalAlign=top;align=center;html=1;shape=mxgraph.aws3.api_gateway;fillColor=#D9A741;gradientColor=none;fontSize=12;fontStyle=1" parent="1" vertex="1">
          <mxGeometry x="670" y="425" width="90" height="100" as="geometry" />
        </mxCell>
        <mxCell id="ChInd9KuV37NnPJaGIP1-46" value="&lt;span&gt;&lt;font&gt;GET Request&lt;/font&gt;&lt;/span&gt;" style="edgeLabel;html=1;align=center;verticalAlign=middle;resizable=0;points=[];fontSize=12;fontStyle=1" parent="1" vertex="1" connectable="0">
          <mxGeometry x="550" y="459.99999999999955" as="geometry" />
        </mxCell>
        <mxCell id="ChInd9KuV37NnPJaGIP1-68" style="edgeStyle=orthogonalEdgeStyle;rounded=0;orthogonalLoop=1;jettySize=auto;html=1;fontSize=12;fontStyle=1" parent="1" source="ChInd9KuV37NnPJaGIP1-47" target="ChInd9KuV37NnPJaGIP1-56" edge="1">
          <mxGeometry relative="1" as="geometry">
            <Array as="points">
              <mxPoint x="1110" y="468" />
              <mxPoint x="1110" y="930" />
              <mxPoint x="730" y="930" />
            </Array>
          </mxGeometry>
        </mxCell>
        <mxCell id="ChInd9KuV37NnPJaGIP1-47" value="" style="editableCssRules=.*;html=1;shape=image;verticalLabelPosition=bottom;labelBackgroundColor=#ffffff;verticalAlign=top;aspect=fixed;imageAspect=0;image=data:image/svg+xml,PHN2ZyB4bWxucz0iaHR0cDovL3d3dy53My5vcmcvMjAwMC9zdmciIHhtbG5zOnY9Imh0dHBzOi8vdmVjdGEuaW8vbmFubyIgd2lkdGg9IjMyMy45MDU2MTAzOTg2NzUxNSIgaGVpZ2h0PSIzNzYuNDIyMjk0OTYzNjg0MDciIHZpZXdCb3g9Ii0wLjA5NzAwMDAwMjg2MTAyMjk1IDAuMjg3OTk5OTg3NjAyMjMzOSA4NS42OTk5OTY5NDgyNDIxOSA5OS41OTUwMDEyMjA3MDMxMiI+JiN4YTs8c3R5bGUgdHlwZT0idGV4dC9jc3MiPiYjeGE7CS5zdDB7ZmlsbDojYWVjYmZhO30mI3hhOwkuc3Qxe2ZpbGw6IzY2OWRmNjt9JiN4YTsJLnN0MntmaWxsOiM0Mjg1ZjQ7fSYjeGE7PC9zdHlsZT4mI3hhOwk8cGF0aCBjbGFzcz0ic3QwIiBkPSJNLS4wOTcgNzUuODE1VjU1Ljg3NGw0Mi44NS0yMC4xODN2MTkuMDd6bTAtMzUuNDAzVjIwLjQ3MUw0Mi43NTMuMjg4djE5LjA3eiIvPiYjeGE7CTxwYXRoIGNsYXNzPSJzdDEiIGQ9Ik04NS42MDMgNzUuODE1VjU1Ljg3NGwtNDIuODUtMjAuMTgzdjE5LjA3em0wLTM1LjQwM1YyMC40NzFMNDIuNzUzLjI4OHYxOS4wN3oiLz4mI3hhOwk8cGF0aCBjbGFzcz0ic3QyIiBkPSJNNDIuNzUzIDgwLjMxNGwxNi4yMTctNy41MjUgMjEuMDg0IDkuNzE3LTM3LjMwMSAxNy4zNzd6Ii8+JiN4YTs8L3N2Zz4=;fontSize=12;fontStyle=1" parent="1" vertex="1">
          <mxGeometry x="998.88" y="425" width="72.25" height="85" as="geometry" />
        </mxCell>
        <mxCell id="ChInd9KuV37NnPJaGIP1-51" value="&lt;span style=&quot;color: rgb(0, 0, 0); font-family: Helvetica; font-style: normal; font-variant-ligatures: normal; font-variant-caps: normal; letter-spacing: normal; orphans: 2; text-align: center; text-indent: 0px; text-transform: none; widows: 2; word-spacing: 0px; -webkit-text-stroke-width: 0px; white-space: nowrap; background-color: rgb(251, 251, 251); text-decoration-thickness: initial; text-decoration-style: initial; text-decoration-color: initial; float: none; display: inline !important;&quot;&gt;API Gateway&lt;/span&gt;" style="text;whiteSpace=wrap;html=1;fontSize=12;fontStyle=1" parent="1" vertex="1">
          <mxGeometry x="665" y="530" width="120" height="40" as="geometry" />
        </mxCell>
        <mxCell id="ChInd9KuV37NnPJaGIP1-67" style="edgeStyle=orthogonalEdgeStyle;rounded=0;orthogonalLoop=1;jettySize=auto;html=1;fontSize=12;fontStyle=1" parent="1" source="ChInd9KuV37NnPJaGIP1-53" target="ChInd9KuV37NnPJaGIP1-57" edge="1">
          <mxGeometry relative="1" as="geometry" />
        </mxCell>
        <mxCell id="ChInd9KuV37NnPJaGIP1-53" value="" style="outlineConnect=0;dashed=0;verticalLabelPosition=bottom;verticalAlign=top;align=center;html=1;shape=mxgraph.aws3.lambda;fillColor=#F58534;gradientColor=none;fontSize=12;fontStyle=1" parent="1" vertex="1">
          <mxGeometry x="686.75" y="760" width="76.5" height="93" as="geometry" />
        </mxCell>
        <mxCell id="ChInd9KuV37NnPJaGIP1-54" style="edgeStyle=orthogonalEdgeStyle;rounded=0;orthogonalLoop=1;jettySize=auto;html=1;entryX=0.5;entryY=0;entryDx=0;entryDy=0;entryPerimeter=0;fontSize=12;fontStyle=1" parent="1" source="ChInd9KuV37NnPJaGIP1-51" target="ChInd9KuV37NnPJaGIP1-53" edge="1">
          <mxGeometry relative="1" as="geometry" />
        </mxCell>
        <mxCell id="ChInd9KuV37NnPJaGIP1-55" value="&lt;span style=&quot;color: rgb(0, 0, 0); font-family: Helvetica; font-style: normal; font-variant-ligatures: normal; font-variant-caps: normal; letter-spacing: normal; orphans: 2; text-align: center; text-indent: 0px; text-transform: none; widows: 2; word-spacing: 0px; -webkit-text-stroke-width: 0px; white-space: nowrap; background-color: rgb(255, 255, 255); text-decoration-thickness: initial; text-decoration-style: initial; text-decoration-color: initial; float: none; display: inline !important;&quot;&gt;Trigger Lambda Function&lt;/span&gt;" style="text;whiteSpace=wrap;html=1;fontSize=12;fontStyle=1" parent="1" vertex="1">
          <mxGeometry x="625" y="610" width="200" height="40" as="geometry" />
        </mxCell>
        <mxCell id="ChInd9KuV37NnPJaGIP1-56" value="&lt;span style=&quot;--tw-border-spacing-x: 0; --tw-border-spacing-y: 0; --tw-translate-x: 0; --tw-translate-y: 0; --tw-rotate: 0; --tw-skew-x: 0; --tw-skew-y: 0; --tw-scale-x: 1; --tw-scale-y: 1; --tw-pan-x: ; --tw-pan-y: ; --tw-pinch-zoom: ; --tw-scroll-snap-strictness: proximity; --tw-gradient-from-position: ; --tw-gradient-via-position: ; --tw-gradient-to-position: ; --tw-ordinal: ; --tw-slashed-zero: ; --tw-numeric-figure: ; --tw-numeric-spacing: ; --tw-numeric-fraction: ; --tw-ring-inset: ; --tw-ring-offset-width: 0px; --tw-ring-offset-color: #fff; --tw-ring-color: rgb(59 130 246 / .5); --tw-ring-offset-shadow: 0 0 #0000; --tw-ring-shadow: 0 0 #0000; --tw-shadow: 0 0 #0000; --tw-shadow-colored: 0 0 #0000; --tw-blur: ; --tw-brightness: ; --tw-contrast: ; --tw-grayscale: ; --tw-hue-rotate: ; --tw-invert: ; --tw-saturate: ; --tw-sepia: ; --tw-drop-shadow: ; --tw-backdrop-blur: ; --tw-backdrop-brightness: ; --tw-backdrop-contrast: ; --tw-backdrop-grayscale: ; --tw-backdrop-hue-rotate: ; --tw-backdrop-invert: ; --tw-backdrop-opacity: ; --tw-backdrop-saturate: ; --tw-backdrop-sepia: ; forced-color-adjust: none; color: rgb(0, 0, 0); font-family: Helvetica; font-style: normal; font-variant-ligatures: normal; font-variant-caps: normal; letter-spacing: normal; orphans: 2; text-align: center; text-indent: 0px; text-transform: none; widows: 2; word-spacing: 0px; -webkit-text-stroke-width: 0px; white-space: nowrap; background-color: rgb(251, 251, 251); text-decoration-thickness: initial; text-decoration-style: initial; text-decoration-color: initial;&quot;&gt;AWS Lambda&lt;/span&gt;" style="text;whiteSpace=wrap;html=1;fontSize=12;fontStyle=1" parent="1" vertex="1">
          <mxGeometry x="670" y="860" width="120" height="40" as="geometry" />
        </mxCell>
        <mxCell id="ChInd9KuV37NnPJaGIP1-57" value="&lt;span style=&quot;--tw-border-spacing-x: 0; --tw-border-spacing-y: 0; --tw-translate-x: 0; --tw-translate-y: 0; --tw-rotate: 0; --tw-skew-x: 0; --tw-skew-y: 0; --tw-scale-x: 1; --tw-scale-y: 1; --tw-pan-x: ; --tw-pan-y: ; --tw-pinch-zoom: ; --tw-scroll-snap-strictness: proximity; --tw-gradient-from-position: ; --tw-gradient-via-position: ; --tw-gradient-to-position: ; --tw-ordinal: ; --tw-slashed-zero: ; --tw-numeric-figure: ; --tw-numeric-spacing: ; --tw-numeric-fraction: ; --tw-ring-inset: ; --tw-ring-offset-width: 0px; --tw-ring-offset-color: #fff; --tw-ring-color: rgb(59 130 246 / .5); --tw-ring-offset-shadow: 0 0 #0000; --tw-ring-shadow: 0 0 #0000; --tw-shadow: 0 0 #0000; --tw-shadow-colored: 0 0 #0000; --tw-blur: ; --tw-brightness: ; --tw-contrast: ; --tw-grayscale: ; --tw-hue-rotate: ; --tw-invert: ; --tw-saturate: ; --tw-sepia: ; --tw-drop-shadow: ; --tw-backdrop-blur: ; --tw-backdrop-brightness: ; --tw-backdrop-contrast: ; --tw-backdrop-grayscale: ; --tw-backdrop-hue-rotate: ; --tw-backdrop-invert: ; --tw-backdrop-opacity: ; --tw-backdrop-saturate: ; --tw-backdrop-sepia: ; forced-color-adjust: none; color: rgb(0, 0, 0); font-family: Helvetica; font-style: normal; font-variant-ligatures: normal; font-variant-caps: normal; letter-spacing: normal; orphans: 2; text-align: center; text-indent: 0px; text-transform: none; widows: 2; word-spacing: 0px; -webkit-text-stroke-width: 0px; white-space: nowrap; background-color: rgb(236, 236, 236); text-decoration-thickness: initial; text-decoration-style: initial; text-decoration-color: initial;&quot;&gt;GCP FireStore&lt;/span&gt;" style="text;whiteSpace=wrap;html=1;fontSize=12;fontStyle=1" parent="1" vertex="1">
          <mxGeometry x="970" y="540" width="130" height="40" as="geometry" />
        </mxCell>
        <mxCell id="ChInd9KuV37NnPJaGIP1-59" value="&lt;span style=&quot;text-wrap-mode: nowrap;&quot;&gt;&lt;span&gt;Query Similar Artists&lt;/span&gt;&lt;/span&gt;" style="text;whiteSpace=wrap;html=1;fontSize=12;fontStyle=1" parent="1" vertex="1">
          <mxGeometry x="790" y="780" width="160" height="40" as="geometry" />
        </mxCell>
        <mxCell id="ChInd9KuV37NnPJaGIP1-69" value="&lt;span style=&quot;text-wrap-mode: nowrap;&quot;&gt;&lt;span&gt;Return Top 10 Similar Artists&lt;/span&gt;&lt;/span&gt;" style="text;whiteSpace=wrap;html=1;fontSize=12;fontStyle=1" parent="1" vertex="1">
          <mxGeometry x="840" y="900" width="150" height="40" as="geometry" />
        </mxCell>
        <mxCell id="ChInd9KuV37NnPJaGIP1-72" value="&lt;span style=&quot;text-wrap-mode: nowrap;&quot;&gt;&lt;span&gt;Return to&amp;nbsp; 10 Similar Artists in JSON Form&lt;/span&gt;&lt;/span&gt;" style="text;whiteSpace=wrap;html=1;align=left;fontSize=12;fontStyle=1" parent="1" vertex="1">
          <mxGeometry x="420" y="550" width="150" height="40" as="geometry" />
        </mxCell>
        <mxCell id="ChInd9KuV37NnPJaGIP1-81" value="&lt;span style=&quot;text-wrap-mode: nowrap;&quot;&gt;&lt;span&gt;Display the Recommendations&lt;/span&gt;&lt;/span&gt;" style="text;whiteSpace=wrap;html=1;fontSize=12;fontStyle=1" parent="1" vertex="1">
          <mxGeometry x="190" y="570" width="150" height="40" as="geometry" />
        </mxCell>
        <mxCell id="ChInd9KuV37NnPJaGIP1-83" value="&lt;div style=&quot;&quot;&gt;&lt;span style=&quot;color: light-dark(rgb(0, 0, 0), rgb(255, 255, 255)); text-wrap-mode: nowrap; background-color: rgb(251, 251, 251);&quot;&gt;&lt;span style=&quot;&quot;&gt;&lt;font style=&quot;font-size: 28px;&quot;&gt;VibeFinder&lt;/font&gt;&lt;/span&gt;&lt;/span&gt;&lt;/div&gt;" style="text;whiteSpace=wrap;html=1;align=center;fontStyle=1" parent="1" vertex="1">
          <mxGeometry x="380" y="-70" width="390" height="50" as="geometry" />
        </mxCell>
      </root>
    </mxGraphModel>
  </diagram>
</mxfile>
